{"title":"Grown.Up.Movie.Star.2009.1080p.WEB-DL.DD5.1.H264-FGT","uid":12113009,"size":3476593052,"categoryP":"video","categoryS":"hd___movies","magnet":"?xt=urn:btih:d917324815da74a65ab5f1955fb55f8b3687c3c8&amp;dn=Grown.Up.Movie.Star.2009.1080p.WEB-DL.DD5.1.H264-FGT&amp;tr=udp%3A%2F%2Ftracker.openbittorrent.com%3A80&amp;tr=udp%3A%2F%2Fopen.demonii.com%3A1337&amp;tr=udp%3A%2F%2Ftracker.coppersurfer.tk%3A6969&amp;tr=udp%3A%2F%2Fexodus.desync.com%3A6969","seeders":0,"leechers":1,"uploader":null,"files":3,"time":1436622550,"description":"Video\nID                                       : 1\nFormat                                   : AVC\nFormat/Info                              : Advanced Video Codec\nFormat profile                           : High@L4\nFormat settings, CABAC                   : Yes\nFormat settings, ReFrames                : 4 frames\nCodec ID                                 : V_MPEG4/ISO/AVC\nDuration                                 : 1h 33mn\nBit rate                                 : 4 455 Kbps\nWidth                                    : 1 920 pixels\nHeight                                   : 1 080 pixels\nDisplay aspect ratio                     : 16:9\nFrame rate mode                          : Constant\nFrame rate                               : 23.976 fps\nColor space                              : YUV\nChroma subsampling                       : 4:2:0\nBit depth                                : 8 bits\nScan type                                : Progressive\nBits/(Pixel*Frame)                       : 0.090\nStream size                              : 2.92 GiB (90%)\nTitle                                    : Grown.Up.Movie.Star.2009.1080p.WEB-DL.DD5.1.H264-FGT\nLanguage                                 : English\nDefault                                  : Yes\nForced                                   : No\nColor range                              : Limited\nColor primaries                          : BT.709\nTransfer characteristics                 : BT.709\nMatrix coefficients                      : BT.709\n\nAudio\nID                                       : 2\nFormat                                   : AC-3\nFormat/Info                              : Audio Coding 3\nMode extension                           : CM (complete main)\nFormat settings, Endianness              : Big\nCodec ID                                 : A_AC3\nDuration                                 : 1h 33mn\nBit rate mode                            : Constant\nBit rate                                 : 384 Kbps\nChannel(s)                               : 6 channels\nChannel positions                        : Front: L C R, Side: L R, LFE\nSampling rate                            : 48.0 KHz\nBit depth                                : 16 bits\nCompression mode                         : Lossy\nStream size                              : 258 MiB (8%)\nTitle                                    : Grown.Up.Movie.Star.2009.1080p.WEB-DL.DD5.1.H264-FGT\nLanguage                                 : English\nDefault                                  : Yes\nForced                                   : No\n\nText\nID                                       : 3\nFormat                                   : UTF-8\nCodec ID                                 : S_TEXT/UTF8\nCodec ID/Info                            : UTF-8 Plain Text\nLanguage                                 : English\nDefault                                  : Yes\nForced                                   : No\n\nMenu\n00:00:00.000                             : en:Opening Sequence\n00:05:42.000                             : en:Where's Dad?\n00:11:58.000                             : en:Smoker\n00:18:14.000                             : en:I Googled Mom\n00:24:21.000                             : en:Good Morning\n00:30:17.000                             : en:Hey Ruby...\n00:38:06.000                             : enothead\n00:44:16.000                             : enrettier Than Me?\n00:50:20.000                             : en:Really Good Parenting\n00:56:13.000                             : enon't Mess Up Again\n01:02:36.000                             : en:Runaway\n01:08:12.000                             : en:Go Home\n01:13:17.000                             : enull Over\n01:21:46.000                             : en:Out For A Walk\n01:24:52.000                             : en:Head Shots\n01:32:33.000                             : en:End Credits","torrent":{"xt":"urn:btih:d917324815da74a65ab5f1955fb55f8b3687c3c8","amp;dn":"Grown.Up.Movie.Star.2009.1080p.WEB-DL.DD5.1.H264-FGT","amp;tr":["udp%3A%2F%2Ftracker.openbittorrent.com%3A80","udp%3A%2F%2Fopen.demonii.com%3A1337","udp%3A%2F%2Ftracker.coppersurfer.tk%3A6969","udp%3A%2F%2Fexodus.desync.com%3A6969"],"infoHash":"d917324815da74a65ab5f1955fb55f8b3687c3c8","infoHashBuffer":{"type":"Buffer","data":[217,23,50,72,21,218,116,166,90,181,241,149,95,181,95,139,54,135,195,200]},"announce":[],"urlList":[]}}